<?xml version="1.0" encoding="utf-8"?>
<!-- Generator: Adobe Illustrator 16.0.0, SVG Export Plug-In . SVG Version: 6.00 Build 0)  -->
<!DOCTYPE svg PUBLIC "-//W3C//DTD SVG 1.1//EN" "http://www.w3.org/Graphics/SVG/1.1/DTD/svg11.dtd">
<svg version="1.1" id="圖層_1" xmlns="http://www.w3.org/2000/svg" xmlns:xlink="http://www.w3.org/1999/xlink" x="0px" y="0px"
	 width="58.738px" height="50.87px" viewBox="0 0 58.738 50.87" enable-background="new 0 0 58.738 50.87" xml:space="preserve">
<g>
	<g>
		<polygon fill="#FFFFFF" points="29.369,3.759 3.324,48.87 55.414,48.87 		"/>
		<path d="M29.369,0L0,50.87h58.738L29.369,0z M29.369,3.759L55.414,48.87H3.324L29.369,3.759z"/>
	</g>
	<path d="M36.729,17.371v0.656l-1.972,0.282l-0.076,7.377c-0.05,4.281-1.833,6.42-5.351,6.42c-3.739,0-5.61-2.027-5.61-6.081v-2.104
		c0-2.55-0.021-4.466-0.058-5.742l-1.651-0.149v-0.658h6.832v0.658l-1.838,0.168c-0.038,1.251-0.057,3.16-0.057,5.725v1.821
		c0,1.714,0.28,2.945,0.844,3.69c0.564,0.744,1.413,1.117,2.554,1.117c2.364,0,3.527-1.635,3.492-4.901l-0.076-7.34l-2.196-0.28
		v-0.658H36.729z"/>
	<path d="M29.2,42.564h-0.731c0,2.102,0.012,3.729,0.039,4.881l2.063,0.205v0.656h-7.133V47.65l1.727-0.169
		c0.037-1.288,0.058-3.26,0.058-5.913v-0.845c0-2.665-0.021-4.655-0.058-5.97l-1.727-0.15v-0.657h5.856
		c4.081,0,6.119,1.421,6.119,4.262c0,1.313-0.495,2.368-1.492,3.163C32.928,42.166,31.354,42.564,29.2,42.564z M29.257,34.68h-0.749
		c-0.027,1.314-0.039,3.328-0.039,6.045v1.125h0.638c1.088,0,1.911-0.331,2.47-0.994c0.556-0.662,0.834-1.553,0.834-2.665
		c0-1.163-0.269-2.04-0.808-2.628C31.064,34.974,30.282,34.68,29.257,34.68z"/>
</g>
</svg>
